<?xml version="1.0" encoding="utf-8"?>
<!-- Generator: Adobe Illustrator 25.2.0, SVG Export Plug-In . SVG Version: 6.00 Build 0)  -->
<svg version="1.1" xmlns="http://www.w3.org/2000/svg" xmlns:xlink="http://www.w3.org/1999/xlink" x="0px" y="0px"
	 viewBox="0 0 73.2 35.7" style="enable-background:new 0 0 73.2 35.7;" xml:space="preserve">
<style type="text/css">
	.st0{fill:#9ADB8A;}
	.st1{fill:#8AD1DD;}
	.st2{fill:#DD5B77;}
	.st3{fill:#C68ADB;}
	.st4{fill:#08003F;}
	.st5{fill:#FFFFFF;}
</style>
<g id="Layer_1">
</g>
<g id="Layer_2">
	<g>
		<g>
			<polygon class="st0" points="6,15.9 7.9,17.2 8.1,14.3 8.2,17.3 8.8,14.4 8.8,17.3 9.5,14.4 9.4,17.4 10.1,14.5 9.9,17.5 
				10.7,14.6 10.5,17.6 11.3,14.7 11.1,17.7 11.9,14.8 11.7,17.8 12.5,15 12.4,17.9 13.2,15.1 13,18 13.8,15.2 13.6,18.1 14.4,15.3 
				14.2,18.2 15,15.3 14.9,18.3 15.5,15.4 15.6,18.4 16,15.5 16.4,18.4 15.3,16.1 17.5,15.6 15.3,17.5 16.9,15 14.9,17.2 16.3,14.6 
				14.4,16.8 15.8,14.2 13.9,16.5 15.3,13.9 13.4,16.2 14.8,13.6 12.9,15.9 14.3,13.2 12.4,15.5 13.7,12.9 11.9,15.2 13.2,12.6 
				11.4,14.9 12.7,12.2 10.9,14.5 12.2,11.9 10.3,14.2 11.7,11.6 9.8,13.8 11.2,11.2 9.2,13.4 10.8,10.9 8.7,13 10.5,10.7 8,10.7 
				9.4,12.8 10.3,10 9.7,12.9 11,10.2 10.2,13.1 11.6,10.5 10.7,13.3 12.1,10.7 11.3,13.5 12.7,11 11.8,13.8 13.3,11.2 12.4,14 
				13.8,11.5 12.9,14.3 14.4,11.7 13.5,14.5 15,12 14.1,14.8 15.5,12.2 14.7,15 16.1,12.4 15.2,15.3 16.6,12.7 15.8,15.5 17.2,12.9 
				16.5,15.8 17.6,13 17.3,16 16.5,13.8 18.8,13.2 16.5,15.1 18.1,12.7 16.1,14.8 17.6,12.3 15.7,14.5 17.1,11.9 15.2,14.2 
				16.6,11.5 14.7,13.8 16,11.2 14.2,13.5 15.5,10.9 13.7,13.2 15,10.5 13.2,12.9 14.5,10.2 12.6,12.5 14,9.9 12.1,12.2 13.5,9.5 
				11.6,11.8 13,9.2 11,11.5 12.5,8.9 10.5,11.1 12,8.6 9.9,10.6 11.8,8.3 9.3,8.4 10.6,10.5 11.5,7.7 11,10.6 12.2,7.9 11.5,10.7 
				12.8,8.1 12,11 13.4,8.4 12.5,11.2 14,8.6 13.1,11.4 14.5,8.9 13.6,11.7 15.1,9.1 14.2,11.9 15.7,9.4 14.8,12.2 16.2,9.6 
				15.3,12.4 16.8,9.9 15.9,12.7 17.4,10.1 16.5,12.9 17.9,10.3 17.1,13.2 18.4,10.5 17.7,13.4 18.9,10.7 18.6,13.6 17.8,11.4 
				20.1,10.9 17.8,12.8 19.4,10.3 17.4,12.5 18.9,9.9 16.9,12.1 18.3,9.5 16.5,11.8 17.8,9.2 16,11.5 17.3,8.9 15.5,11.2 16.8,8.5 
				15,10.8 16.3,8.2 14.4,10.5 15.7,7.9 13.9,10.2 15.2,7.5 13.4,9.8 14.7,7.2 12.8,9.5 14.2,6.9 12.3,9.1 13.7,6.5 11.8,8.7 
				13.3,6.2 11.2,8.3 13,6 10.5,6 11.9,8.1 12.8,5.3 12.2,8.2 13.5,5.5 12.7,8.4 14.1,5.8 13.3,8.6 14.7,6 13.8,8.8 15.2,6.3 
				14.3,9.1 15.8,6.5 14.9,9.3 16.4,6.8 15.5,9.6 16.9,7 16,9.8 17.5,7.3 16.6,10.1 18.1,7.5 17.2,10.3 18.6,7.8 17.8,10.6 19.2,8 
				18.4,10.8 19.7,8.2 19,11.1 20.2,8.3 19.9,11.3 19.1,9.1 21.6,8.8 18.9,10.1 21.1,8.1 18.6,9.7 20.7,7.6 18.2,9.3 20.2,7.1 
				17.9,8.8 19.8,6.6 17.4,8.4 19.4,6.2 17,8 19,5.7 16.6,7.5 18.5,5.3 16.2,7.1 18.1,4.8 15.8,6.6 17.7,4.4 15.3,6.1 17.3,3.9 
				14.9,5.7 16.8,3.5 14.5,5.2 16.5,3 14,4.7 16.1,2.6 13.6,4.1 15.9,2.3 13.8,1.5 13.6,3.8 16.2,2.4 13.8,4.1 16.6,3 14,4.6 
				16.8,3.6 14.3,5.1 17.1,4.2 14.5,5.6 17.3,4.8 14.7,6.2 17.6,5.3 15,6.7 17.8,5.9 15.2,7.3 18,6.5 15.4,7.9 18.3,7.1 15.7,8.5 
				18.5,7.6 15.9,9.1 18.8,8.2 16.2,9.6 19,8.7 16.5,10.2 19.2,9.2 16.7,10.8 19.5,9.7 17.2,11.6 18.5,9.4 20.2,11 17.3,10.1 
				20.3,10.2 17.4,9.6 20.3,9.5 17.4,9.1 20.4,8.9 17.4,8.5 20.4,8.2 17.5,7.9 20.4,7.6 17.5,7.3 20.4,7 17.5,6.7 20.4,6.4 
				17.5,6.1 20.4,5.8 17.5,5.4 20.4,5.2 17.5,4.8 20.4,4.6 17.5,4.2 20.5,4 17.5,3.5 20.5,3.4 17.6,2.9 20.5,2.8 17.6,2.2 20.6,2.5 
				19.2,0.4 18.1,2.6 21,2 18.2,3 21.2,2.7 18.3,3.5 21.3,3.3 18.4,4.1 21.4,3.9 18.5,4.6 21.5,4.5 18.6,5.2 21.5,5.1 18.7,5.8 
				21.6,5.7 18.8,6.4 21.7,6.4 18.8,7.1 21.8,7 18.9,7.7 21.9,7.6 19,8.3 22,8.2 19.1,8.9 22.1,8.8 19.2,9.6 22.2,9.3 19.3,10.2 
				22.3,9.8 19.6,11 21,9.2 22.7,10.8 19.9,10 22.8,10 19.9,9.5 22.9,9.3 20,8.9 22.9,8.7 20,8.3 22.9,8.1 20,7.7 22.9,7.5 20,7.1 
				22.9,6.9 20,6.5 23,6.2 20,5.9 23,5.6 20,5.3 23,5 20,4.7 23,4.4 20.1,4 23,3.8 20.1,3.4 23,3.2 20.1,2.7 23.1,2.7 20.2,2 
				23.1,2.3 21.8,0.2 20.7,2.5 23.5,1.8 20.8,2.8 23.7,2.5 20.9,3.3 23.8,3.1 21,3.9 23.9,3.8 21.1,4.5 24,4.4 21.1,5.1 24.1,5 
				21.2,5.7 24.2,5.6 21.3,6.3 24.2,6.2 21.4,6.9 24.3,6.8 21.5,7.5 24.4,7.4 21.6,8.1 24.5,8 21.7,8.8 24.6,8.6 21.8,9.4 24.7,9.2 
				21.9,10.1 24.8,9.7 22.1,10.9 23.6,9.1 25.2,10.7 22.4,9.8 25.4,9.9 22.5,9.3 25.4,9.2 22.5,8.7 25.5,8.6 22.5,8.2 25.5,7.9 
				22.5,7.6 25.5,7.3 22.6,7 25.5,6.7 22.6,6.4 25.5,6.1 22.6,5.7 25.5,5.5 22.6,5.1 25.5,4.9 22.6,4.5 25.5,4.2 22.6,3.9 25.5,3.6 
				22.6,3.2 25.6,3.1 22.7,2.6 25.6,2.5 22.7,1.9 25.7,2.2 24.3,0.1 23.2,2.3 26.1,1.7 23.3,2.7 26.2,2.3 23.4,3.2 26.4,3 23.5,3.8 
				26.5,3.6 23.6,4.3 26.5,4.2 23.7,4.9 26.6,4.8 23.8,5.5 26.7,5.4 23.8,6.1 26.8,6 23.9,6.7 26.9,6.7 24,7.4 27,7.3 24.1,8 
				27,7.9 24.2,8.6 27.1,8.5 24.3,9.3 27.2,9 24.4,9.9 27.4,9.5 24.7,10.7 26.1,8.9 27.7,10.9 25.2,9.3 28,10.2 25.4,8.9 28.3,9.5 
				25.6,8.3 28.5,8.9 25.8,7.8 28.6,8.3 25.9,7.2 28.8,7.7 26.1,6.6 29,7.2 26.3,6 29.2,6.6 26.4,5.5 29.3,6 26.6,4.9 29.5,5.4 
				26.8,4.2 29.7,4.8 27,3.6 29.9,4.2 27.2,3 30,3.7 27.4,2.4 30.2,3.1 27.6,1.7 30.4,2.8 30,0.6 28,1.5 30.4,3.2 27.8,1.8 30,3.8 
				27.5,2.3 29.6,4.3 27.1,2.7 29.2,4.8 26.7,3.2 28.8,5.3 26.4,3.6 28.4,5.7 26,4.1 28,6.2 25.6,4.6 27.6,6.7 25.2,5 27.2,7.2 
				24.8,5.5 26.8,7.6 24.4,6 26.5,8.1 24,6.5 26.1,8.6 23.6,7 25.7,9 23.2,7.6 25.4,9.4 22.7,8.3 25.3,8.5 24.6,10.7 24.1,7.8 
				25.4,10.4 24.6,7.6 26,10.2 25.1,7.4 26.6,9.9 25.6,7.1 27.1,9.6 26.1,6.9 27.7,9.4 26.7,6.6 28.2,9.1 27.2,6.3 28.8,8.8 
				27.8,6.1 29.4,8.5 28.3,5.8 29.9,8.3 28.9,5.5 30.5,8 29.5,5.2 31,7.8 30.1,5 31.5,7.5 30.7,4.7 32,7.3 31.3,4.4 32.4,7.2 
				33.6,5 31.1,5.1 33,7.3 30.9,5.3 32.5,7.8 30.4,5.7 32,8.2 30,6 31.4,8.5 29.5,6.3 30.9,8.9 29,6.7 30.4,9.3 28.5,7 29.9,9.6 
				28,7.4 29.4,10 27.5,7.7 28.9,10.3 27,8.1 28.4,10.6 26.5,8.4 27.9,11 26,8.8 27.4,11.3 25.4,9.2 27,11.7 24.9,9.6 26.6,12 
				24.3,10.2 26.5,10.7 25.9,12.9 25.4,9.9 26.7,12.6 25.9,9.8 27.3,12.3 26.4,9.5 27.9,12.1 26.9,9.3 28.4,11.8 27.4,9 29,11.6 
				28,8.8 29.5,11.3 28.5,8.5 30.1,11 29.1,8.2 30.6,10.7 29.6,8 31.2,10.5 30.2,7.7 31.7,10.2 30.8,7.4 32.3,9.9 31.3,7.1 
				32.8,9.7 31.9,6.9 33.3,9.5 32.6,6.6 33.7,9.4 34.9,7.2 32.4,7.3 34.3,9.5 32.2,7.5 33.7,10 31.7,7.8 33.2,10.4 31.3,8.2 
				32.7,10.7 30.8,8.5 32.2,11.1 30.3,8.9 31.7,11.4 29.8,9.2 31.2,11.8 29.3,9.5 30.7,12.1 28.8,9.9 30.2,12.5 28.3,10.2 
				29.7,12.8 27.8,10.6 29.2,13.2 27.2,11 28.7,13.5 26.7,11.4 28.3,13.9 26.2,11.8 27.9,14.2 25.6,12.4 27.8,12.8 27.1,15 
				26.7,12.1 27.9,14.8 27.1,12 28.6,14.5 27.6,11.7 29.1,14.3 28.2,11.5 29.7,14 28.7,11.2 30.3,13.7 29.2,11 30.8,13.5 29.8,10.7 
				31.4,13.2 30.3,10.4 31.9,12.9 30.9,10.2 32.5,12.7 31.5,9.9 33,12.4 32,9.6 33.6,12.1 32.6,9.3 34.1,11.9 33.2,9.1 34.6,11.7 
				33.9,8.8 34.9,11.6 36.2,9.4 33.7,9.5 35.6,11.7 33.4,9.7 35,12.2 33,10 34.5,12.6 32.6,10.4 34,12.9 32.1,10.7 33.5,13.3 
				31.6,11.1 33,13.6 31.1,11.4 32.5,14 30.6,11.7 32,14.3 30.1,12.1 31.5,14.7 29.6,12.4 31,15 29,12.8 30.5,15.4 28.5,13.2 
				30,15.7 28,13.6 29.5,16.1 27.5,14 29.2,16.4 26.8,14.6 29.1,15 28.1,17.3 28.3,14.4 28.9,17.3 28.8,14.3 29.6,17.2 29.4,14.3 
				30.2,17.1 30,14.2 30.8,17 30.5,14 31.4,16.9 31.1,13.9 32,16.7 31.7,13.8 32.6,16.6 32.3,13.7 33.2,16.5 32.9,13.6 33.8,16.4 
				33.6,13.4 34.4,16.3 34.2,13.3 35,16.2 34.8,13.2 35.6,16.1 35.5,13.1 36.1,16 36.2,13 36.5,16 38.3,14.6 36.4,13.3 36.2,16.2 
				36.1,13.2 35.5,16.1 35.5,13.2 34.9,16 35,13.1 34.2,16 34.4,13 33.6,15.9 33.8,12.9 33,15.8 33.2,12.8 32.4,15.6 32.6,12.7 
				31.8,15.5 32,12.6 31.2,15.4 31.4,12.5 30.6,15.3 30.7,12.4 30,15.2 30.1,12.3 29.4,15.2 29.5,12.2 28.8,15.1 28.8,12.1 28.3,15 
				27.9,12.1 29.1,14.4 26.8,14.9 29.1,13 27.4,15.5 29.5,13.3 28,15.9 29.9,13.7 28.5,16.3 30.4,14 29,16.6 30.9,14.3 29.6,16.9 
				31.4,14.6 30.1,17.3 31.9,15 30.6,17.6 32.4,15.3 31.1,17.9 33,15.6 31.6,18.3 33.5,16 32.1,18.6 34,16.3 32.6,18.9 34.5,16.7 
				33.1,19.3 35.1,17.1 33.6,19.6 35.7,17.5 33.8,19.8 36.3,19.8 35,17.7 34.1,20.5 34.6,17.6 33.4,20.2 34.1,17.4 32.8,20 
				33.6,17.2 32.2,19.8 33.1,17 31.6,19.5 32.5,16.7 31.1,19.3 32,16.5 30.5,19 31.4,16.2 29.9,18.8 30.8,16 29.4,18.5 30.3,15.7 
				28.8,18.3 29.7,15.5 28.2,18 29.1,15.2 27.7,17.8 28.5,15 27.2,17.6 27.8,14.7 26.7,17.5 27,14.5 27.8,16.7 25.5,17.3 27.8,15.4 
				26.2,17.8 28.2,15.7 26.7,18.2 28.7,16 27.3,18.6 29.1,16.3 27.8,18.9 29.6,16.7 28.3,19.3 30.1,17 28.8,19.6 30.6,17.3 
				29.3,19.9 31.2,17.6 29.8,20.3 31.7,18 30.4,20.6 32.2,18.3 30.9,20.9 32.8,18.7 31.4,21.3 33.3,19 31.9,21.6 33.8,19.4 
				32.3,21.9 34.4,19.9 32.6,22.2 35.1,22.1 33.7,20 32.8,22.8 33.4,19.9 32.1,22.6 32.9,19.7 31.5,22.4 32.3,19.5 30.9,22.1 
				31.8,19.3 30.4,21.9 31.2,19.1 29.8,21.6 30.7,18.8 29.2,21.4 30.1,18.6 28.7,21.1 29.6,18.3 28.1,20.9 29,18.1 27.5,20.6 
				28.4,17.8 27,20.4 27.8,17.6 26.4,20.2 27.2,17.3 25.9,20 26.6,17.1 25.4,19.8 25.7,16.9 26.5,19.1 24.3,19.6 26.5,17.7 
				24.9,20.2 26.9,18 25.5,20.6 27.4,18.4 26,21 27.9,18.7 26.5,21.3 28.4,19 27,21.6 28.9,19.3 27.5,22 29.4,19.7 28.1,22.3 
				29.9,20 28.6,22.6 30.4,20.3 29.1,23 31,20.7 29.6,23.3 31.5,21 30.1,23.6 32,21.4 30.6,24 32.6,21.8 31,24.3 33.1,22.2 
				31.3,24.5 33.8,24.5 32.4,22.4 31.5,25.2 32.1,22.3 30.8,24.9 31.6,22.1 30.2,24.7 31.1,21.9 29.7,24.5 30.5,21.7 29.1,24.2 
				30,21.4 28.5,24 29.4,21.2 28,23.7 28.9,20.9 27.4,23.5 28.3,20.7 26.8,23.2 27.7,20.4 26.3,23 27.1,20.2 25.7,22.7 26.6,19.9 
				25.2,22.5 26,19.7 24.6,22.3 25.3,19.4 24.2,22.2 24.5,19.2 25.3,21.4 22.8,21.7 25.4,20.4 23.3,22.4 25.7,20.8 23.7,22.9 
				26.1,21.2 24.1,23.4 26.5,21.7 24.5,23.9 26.9,22.1 24.9,24.3 27.3,22.5 25.4,24.8 27.7,23 25.8,25.2 28.1,23.4 26.2,25.7 
				28.6,23.9 26.7,26.1 29,24.4 27.1,26.6 29.4,24.8 27.5,27 29.9,25.3 27.9,27.5 30.3,25.8 28.2,27.9 30.8,26.4 28.4,28.2 30.6,29 
				30.7,26.7 28.1,28.1 30.5,26.4 27.8,27.4 30.3,25.9 27.5,26.9 30.1,25.4 27.2,26.3 29.8,24.9 27,25.7 29.6,24.3 26.8,25.2 
				29.4,23.7 26.5,24.6 29.1,23.2 26.3,24 28.9,22.6 26.1,23.4 28.6,22 25.8,22.9 28.4,21.4 25.6,22.3 28.1,20.9 25.3,21.8 
				27.9,20.3 25.1,21.3 27.6,19.7 24.9,20.8 27.1,18.9 25.8,21.1 24.2,19.5 27,20.4 24,20.3 26.9,20.9 24,21 26.9,21.4 24,21.6 
				26.9,22 23.9,22.2 26.9,22.6 23.9,22.9 26.9,23.2 23.9,23.5 26.9,23.8 23.9,24.1 26.9,24.4 23.9,24.7 26.8,25.1 23.9,25.3 
				26.8,25.7 23.9,25.9 26.8,26.3 23.9,26.5 26.8,27 23.9,27.1 26.8,27.6 23.8,27.7 26.7,28.3 23.8,28 25.1,30.1 26.2,27.9 
				23.3,28.5 26.1,27.5 23.2,27.8 26,27 23.1,27.2 25.9,26.4 23,26.6 25.8,25.8 22.9,26 25.7,25.3 22.8,25.4 25.7,24.7 22.7,24.7 
				25.6,24.1 22.6,24.1 25.5,23.4 22.5,23.5 25.4,22.8 22.5,22.9 25.3,22.2 22.4,22.3 25.2,21.6 22.3,21.7 25.1,20.9 22.2,21.2 
				25,20.3 22.1,20.7 24.7,19.4 23.3,21.2 21.6,19.6 24.4,20.5 21.5,20.5 24.4,21 21.5,21.2 24.4,21.6 21.4,21.8 24.3,22.2 
				21.4,22.4 24.3,22.8 21.4,23 24.3,23.4 21.4,23.6 24.3,24 21.4,24.2 24.3,24.6 21.4,24.9 24.3,25.2 21.4,25.5 24.3,25.8 
				21.4,26.1 24.3,26.5 21.3,26.7 24.3,27.1 21.3,27.3 24.2,27.8 21.3,27.8 24.1,28.5 21.2,28.2 22.6,30.3 23.7,28 20.8,28.7 
				23.6,27.7 20.6,28 23.5,27.1 20.5,27.3 23.4,26.6 20.4,26.7 23.3,26 20.3,26.1 23.2,25.4 20.2,25.5 23.1,24.8 20.2,24.9 23,24.2 
				20.1,24.3 22.9,23.6 20,23.7 22.9,23 19.9,23.1 22.8,22.3 19.8,22.5 22.7,21.7 19.7,21.9 22.6,21.1 19.6,21.3 22.4,20.4 
				19.5,20.8 22.2,19.6 20.8,21.4 19.1,19.8 21.9,20.7 19,20.6 21.9,21.2 18.9,21.3 21.8,21.8 18.9,21.9 21.8,22.3 18.9,22.6 
				21.8,22.9 18.9,23.2 21.8,23.5 18.8,23.8 21.8,24.1 18.8,24.4 21.8,24.7 18.8,25 21.8,25.4 18.8,25.6 21.8,26 18.8,26.2 
				21.7,26.6 18.8,26.8 21.7,27.3 18.8,27.4 21.7,27.9 18.7,28 21.6,28.6 18.7,28.3 20,30.4 21.1,28.2 18.3,28.8 21,27.8 18.1,28.1 
				20.9,27.3 18,27.5 20.8,26.7 17.9,26.9 20.7,26.2 17.8,26.3 20.6,25.6 17.7,25.7 20.6,25 17.6,25.1 20.5,24.4 17.5,24.4 
				20.4,23.7 17.5,23.8 20.3,23.1 17.4,23.2 20.2,22.5 17.3,22.6 20.1,21.9 17.2,22 20,21.2 17.1,21.5 19.9,20.6 17,21 19.7,19.8 
				18.2,21.6 16.6,19.6 19.1,21.2 16.3,20.3 18.9,21.6 16.1,21 18.8,22.2 15.9,21.6 18.6,22.7 15.7,22.2 18.4,23.3 15.5,22.7 
				18.2,23.9 15.3,23.3 18.1,24.4 15.2,23.9 17.9,25 15,24.5 17.7,25.6 14.8,25.1 17.5,26.2 14.6,25.7 17.4,26.9 14.5,26.3 
				17.2,27.5 14.3,26.8 17,28.1 14.1,27.3 16.7,28.7 14,27.7 14.3,29.9 16.4,29 14,27.3 16.6,28.7 14.4,26.7 16.9,28.2 14.7,26.2 
				17.2,27.8 15.1,25.7 17.6,27.3 15.5,25.2 18,26.9 15.9,24.8 18.4,26.4 16.3,24.3 18.8,25.9 16.7,23.8 19.2,25.4 17.1,23.3 
				19.6,25 17.5,22.9 20,24.5 17.9,22.4 20.4,24 18.3,21.9 20.8,23.5 18.6,21.5 21.2,22.9 18.9,21 21.6,22.2 19.1,22 19.8,19.8 
				20.2,22.7 18.9,20.1 19.8,22.9 18.3,20.3 19.3,23.1 17.8,20.6 18.7,23.4 17.2,20.9 18.2,23.6 16.6,21.1 17.7,23.9 16.1,21.4 
				17.1,24.2 15.5,21.7 16.6,24.4 15,21.9 16,24.7 14.4,22.2 15.4,25 13.9,22.5 14.9,25.3 13.3,22.7 14.3,25.5 12.8,23 13.7,25.8 
				12.3,23.2 13,26.1 12,23.3 10.7,25.5 13.2,25.4 11.3,23.2 13.5,25.2 11.9,22.7 13.9,24.8 12.4,22.3 14.3,24.5 12.9,21.9 
				14.8,24.2 13.4,21.6 15.3,23.8 13.9,21.2 15.8,23.5 14.4,20.9 16.3,23.1 14.9,20.5 16.8,22.8 15.4,20.2 17.3,22.4 15.9,19.8 
				17.9,22.1 16.4,19.5 18.4,21.7 16.9,19.1 18.9,21.3 17.4,18.8 19.4,20.9 17.7,18.5 20.1,20.3 17.8,19.8 18.5,17.6 18.9,20.5 
				17.7,17.9 18.5,20.7 17.1,18.1 18,20.9 16.5,18.4 17.4,21.2 15.9,18.7 16.9,21.4 15.4,18.9 16.4,21.7 14.8,19.2 15.8,22 
				14.3,19.5 15.3,22.3 13.7,19.8 14.7,22.5 13.1,20 14.2,22.8 12.6,20.3 13.6,23.1 12.1,20.6 13,23.3 11.5,20.8 12.4,23.6 11,21 
				11.7,23.9 10.7,21.1 9.4,23.3 11.9,23.2 10,21 12.2,23 10.6,20.5 12.6,22.7 11.1,20.1 13.1,22.3 11.6,19.8 13.5,22 12.1,19.4 
				14,21.6 12.6,19.1 14.5,21.3 13.1,18.7 15,21 13.6,18.4 15.5,20.6 14.1,18 16.1,20.2 14.6,17.7 16.6,19.9 15.1,17.3 17.1,19.5 
				15.6,17 17.6,19.1 16.1,16.6 18.2,18.7 16.5,16.3 18.8,18.1 16.5,17.7 17.2,15.5 17.7,18.4 16.4,15.7 17.2,18.5 15.8,16 
				16.7,18.8 15.2,16.2 16.2,19 14.6,16.5 15.6,19.3 14.1,16.8 15.1,19.5 13.5,17 14.5,19.8 13,17.3 14,20.1 12.4,17.6 13.4,20.3 
				11.9,17.8 12.9,20.6 11.3,18.1 12.3,20.9 10.8,18.4 11.7,21.2 10.2,18.6 11.1,21.4 9.7,18.8 10.4,21.7 9.4,18.9 8.1,21.1 
				10.8,20.6 8.2,19.1 11,20.2 8.6,18.5 11.2,19.8 8.9,18 11.5,19.3 9.2,17.5 11.8,18.8 9.5,17 12.2,18.3 9.9,16.5 12.5,17.8 
				10.2,16 12.8,17.3 10.5,15.5 13.2,16.8 10.9,14.9 13.5,16.3 11.2,14.4 13.8,15.8 11.5,13.9 14.2,15.3 11.8,13.4 14.5,14.7 
				12.1,13 14.8,14.2 12.4,12.5 15.2,13.4 13.4,14.1 13.7,11.1 13.3,14 13,11.1 13,14.1 12.2,11.2 12.8,14.1 11.6,11.4 12.4,14.2 
				11,11.7 12.1,14.4 10.5,11.9 11.8,14.6 10,12.2 11.4,14.8 9.5,12.5 11,15.1 9.1,12.9 10.7,15.3 8.7,13.2 10.3,15.6 8.3,13.5 
				10,15.9 7.9,13.9 9.6,16.2 7.5,14.2 9.2,16.6 7.1,14.5 8.8,16.9 6.9,14.7 			"/>
		</g>
		<g>
			<path class="st1" d="M6.8,16c0-0.7,9.2,1.7,9.5,1.1c0.3-0.6-7.9-5.2-7.6-5.8c0.3-0.6,8.6,4,8.9,3.3c0.3-0.6-7.9-5.2-7.6-5.8
				c0.3-0.6,8.6,4,8.9,3.3c0.3-0.6-7.9-5.2-7.6-5.8c0.3-0.6,8.6,4,8.9,3.3c0.3-0.6-6.6-7.1-6-7.4c0.6-0.4,3.6,8.6,4.3,8.5
				c0.7-0.1,0-9.4,0.6-9.5c0.7-0.1,1.4,9.3,2,9.3c0.7-0.1,0-9.4,0.6-9.5c0.7-0.1,1.4,9.3,2,9.3c0.7-0.1,0-9.4,0.6-9.5
				c0.7-0.1,1.4,9.3,2.1,9.3c0.7-0.1,2.5-9.3,3.1-9c0.6,0.3-5.9,7.1-5.6,7.7c0.3,0.6,8.5-4.2,8.8-3.6c0.3,0.6-7.8,5.3-7.5,5.9
				c0.3,0.6,8.5-4.2,8.8-3.6c0.3,0.6-7.8,5.3-7.5,5.9c0.3,0.6,8.5-4.2,8.8-3.6c0.3,0.6-7.8,5.3-7.5,5.9s9.4-1.9,9.4-1.2
				c0,0.7-9.2-1.7-9.5-1.1c-0.3,0.6,7.9,5.2,7.6,5.8c-0.3,0.6-8.6-4-8.9-3.3c-0.3,0.6,7.9,5.2,7.6,5.8c-0.3,0.6-8.6-4-8.9-3.3
				c-0.3,0.6,7.9,5.2,7.6,5.8c-0.3,0.6-8.6-4-8.9-3.3s6.6,7.1,6,7.4c-0.6,0.4-3.6-8.6-4.3-8.5c-0.7,0.1,0,9.4-0.6,9.5
				c-0.7,0.1-1.4-9.3-2-9.3c-0.7,0.1,0,9.4-0.6,9.5c-0.7,0.1-1.4-9.3-2-9.3c-0.7,0.1,0,9.4-0.6,9.5c-0.7,0.1-1.4-9.3-2.1-9.3
				s-2.5,9.3-3.1,9c-0.6-0.3,5.9-7.1,5.6-7.7c-0.3-0.6-8.5,4.2-8.8,3.6c-0.3-0.6,7.8-5.3,7.5-5.9c-0.3-0.6-8.5,4.2-8.8,3.6
				c-0.3-0.6,7.8-5.3,7.5-5.9c-0.3-0.6-8.5,4.2-8.8,3.6c-0.3-0.6,5.3-7.9,4.6-8C10.7,11.9,6.8,16.7,6.8,16z"/>
		</g>
	</g>
</g>
<g id="Layer_3">
	<g>
		<g>
			<polygon class="st2" points="34.9,2.1 35,3.9 37,3.5 35.5,4.9 37.6,4.7 36,6.1 38,5.9 36.4,7.3 38.5,7.1 36.9,8.4 39,8.3 
				37.3,9.6 39.4,9.5 37.8,10.8 39.9,10.7 38.3,12 40.4,11.8 38.8,13.3 40.9,12.9 40.5,14.8 39.7,13.1 41.8,12.8 39.9,12 41.9,11.5 
				40,10.7 42,10.2 40,9.5 42,8.9 40.1,8.2 42.1,7.6 40.1,6.9 42.1,6.4 40.2,5.6 42.2,5.1 40.2,4.3 42.3,3.9 40.4,3 42.4,2.7 
				41.7,1 41.1,2.8 43.1,2.9 41.3,3.9 43.3,4.2 41.4,5.1 43.5,5.5 41.6,6.4 43.6,6.8 41.7,7.6 43.8,8.1 41.9,8.9 43.9,9.3 42,10.2 
				44.1,10.6 42.2,11.5 44.2,11.8 42.4,12.8 44.4,12.9 43.8,14.7 43.1,13 45.1,12.7 43.2,11.8 45.3,11.4 43.3,10.6 45.3,10.1 
				43.4,9.4 45.4,8.8 43.4,8.1 45.4,7.5 43.5,6.8 45.5,6.3 43.5,5.5 45.6,5 43.6,4.2 45.6,3.7 43.7,2.9 45.8,2.6 45,0.9 44.4,2.7 
				46.5,2.8 44.6,3.8 46.7,4.1 44.8,5 46.9,5.4 44.9,6.3 47,6.7 45.1,7.5 47.1,7.9 45.2,8.8 47.3,9.2 45.4,10.1 47.4,10.5 
				45.5,11.4 47.6,11.7 45.7,12.7 47.8,12.8 47.2,14.6 46.4,12.9 48.5,12.6 46.6,11.7 48.6,11.3 46.7,10.5 48.7,10 46.7,9.2 
				48.7,8.7 46.8,8 48.8,7.4 46.8,6.7 48.8,6.1 46.9,5.4 48.9,4.9 47,4.1 49,3.6 47.1,2.8 49.1,2.5 48.4,0.8 47.8,2.5 49.9,2.7 
				48,3.7 50.1,4 48.2,4.9 50.2,5.3 48.3,6.2 50.4,6.6 48.4,7.4 50.5,7.8 48.6,8.7 50.6,9.1 48.7,10 50.8,10.4 48.9,11.2 50.9,11.6 
				49.1,12.6 51.2,12.7 50.5,14.5 50,12.6 52,12.7 50.3,11.5 52.4,11.5 50.7,10.3 52.8,10.2 51,9.1 53.1,9 51.3,7.9 53.4,7.7 
				51.6,6.6 53.7,6.5 51.9,5.3 54,5.2 52.3,4.1 54.4,4 52.7,2.8 54.8,2.9 54.6,1.2 53.2,2.3 54.8,3.7 52.8,3.4 54.2,4.9 52.2,4.5 
				53.6,6 51.6,5.6 53,7.1 50.9,6.7 52.3,8.3 50.3,7.8 51.7,9.4 49.6,9 51.1,10.5 49,10.1 50.5,11.6 48.4,11.3 50,12.7 48.3,13.6 
				49.1,11.9 50.7,13.2 50,11.2 51.7,12.4 51,10.5 52.7,11.6 51.9,9.7 53.7,10.8 52.9,8.9 54.7,10 53.9,8 55.7,9.1 54.9,7.2 
				56.6,8.3 55.9,6.4 57.6,7.6 57,5.6 58.6,6.9 59.4,5.2 57.6,5.9 58.9,7.6 56.9,6.9 58.1,8.6 56.1,7.8 57.2,9.6 55.3,8.8 
				56.4,10.6 54.5,9.7 55.6,11.5 53.6,10.7 54.7,12.5 52.8,11.7 53.9,13.5 51.9,12.7 53.1,14.4 51.1,13.7 52.4,15.3 50.7,16.1 
				51.5,14.4 53.1,15.7 52.4,13.7 54.1,14.9 53.4,12.9 55.2,14.1 54.4,12.1 56.1,13.3 55.3,11.3 57.1,12.4 56.3,10.5 58.1,11.6 
				57.3,9.7 59.1,10.8 58.3,8.9 60,10 59.4,8.1 61,9.4 61.8,7.7 60,8.4 61.3,10.1 59.4,9.3 60.5,11.1 58.6,10.3 59.7,12.1 
				57.7,11.3 58.8,13.1 56.9,12.2 58,14 56.1,13.2 57.1,15 55.2,14.1 56.3,15.9 54.4,15.1 55.5,16.9 53.5,16.2 54.8,17.8 53.1,18.6 
				53.9,16.8 55.5,18.2 54.8,16.2 56.6,17.4 55.8,15.4 57.6,16.6 56.8,14.6 58.6,15.7 57.8,13.8 59.5,14.9 58.7,13 60.5,14.1 
				59.7,12.1 61.5,13.3 60.7,11.3 62.5,12.5 61.8,10.5 63.4,11.9 64.2,10.1 62.5,10.9 63.8,12.5 61.8,11.8 62.9,13.6 61,12.8 
				62.1,14.6 60.2,13.7 61.3,15.5 59.3,14.7 60.4,16.5 58.5,15.6 59.6,17.4 57.6,16.6 58.7,18.4 56.8,17.6 57.9,19.4 56,18.7 
				57.3,20.3 55.5,21 56.6,19.3 57.8,21 57.7,18.9 59,20.5 58.8,18.4 60.2,19.9 59.9,17.9 61.4,19.4 61.1,17.3 62.5,18.8 62.2,16.7 
				63.7,18.2 63.4,16.2 64.8,17.7 64.6,15.6 66,17.2 65.8,15.1 67,16.7 68.3,15.5 66.7,15 66.3,17.1 65.5,15.1 65,17.2 64.3,15.2 
				63.7,17.2 63.1,15.2 62.5,17.2 61.8,15.3 61.2,17.3 60.6,15.3 60,17.3 59.3,15.3 58.8,17.4 58,15.4 57.5,17.4 56.7,15.5 
				56.4,17.5 54.7,16.4 56.6,16.3 56.2,18.3 57.6,16.8 57.4,18.9 58.8,17.3 58.5,19.4 59.9,17.9 59.7,19.9 61.1,18.3 60.9,20.4 
				62.2,18.8 62,20.9 63.4,19.4 63.2,21.4 64.6,19.9 64.3,22 65.8,20.4 65.4,22.5 67.2,22.4 65.9,21.1 64.9,22.9 64.7,20.8 
				63.6,22.6 63.5,20.5 62.4,22.3 62.3,20.2 61.2,21.9 61.1,19.8 59.9,21.6 59.9,19.5 58.7,21.2 58.7,19.1 57.5,20.9 57.4,18.8 
				56.3,20.5 56.2,18.4 55.2,20.3 53.8,19 55.7,18.9 55.3,20.9 56.7,19.4 56.4,21.5 57.8,19.9 57.6,22 59,20.4 58.8,22.5 60.1,20.9 
				59.9,23 61.3,21.4 61.1,23.5 62.5,21.9 62.3,24 63.7,22.5 63.4,24.5 64.8,23 64.4,25.1 66.3,25 64.9,23.7 63.9,25.5 63.8,23.4 
				62.7,25.2 62.6,23.1 61.4,24.9 61.4,22.8 60.2,24.5 60.2,22.4 59,24.1 59,22 57.8,23.8 57.7,21.7 56.6,23.4 56.5,21.3 55.4,23.1 
				55.2,21 54.2,22.9 52.8,21.6 54.7,21.5 54.3,23.5 55.8,22 55.5,24.1 56.9,22.5 56.7,24.6 58.1,23 57.8,25.1 59.2,23.5 59,25.6 
				60.4,24 60.2,26.1 61.6,24.5 61.3,26.6 62.7,25.1 62.4,27.1 63.9,25.6 63.5,27.7 65.4,27.6 64,26.3 63,28.1 62.8,26 61.7,27.8 
				61.7,25.7 60.5,27.5 60.4,25.4 59.3,27.1 59.2,25 58.1,26.7 58,24.6 56.8,26.4 56.8,24.3 55.6,26 55.6,23.9 54.4,25.7 54.3,23.6 
				53.3,25.5 51.9,24.2 53.9,24.4 52.9,26.2 54.7,25.2 53.8,27.1 55.6,26 54.7,27.9 56.5,26.9 55.6,28.8 57.4,27.7 56.5,29.6 
				58.3,28.5 57.5,30.4 59.3,29.4 58.4,31.3 60.2,30.2 59.3,32.1 61.1,31.1 60.1,32.9 61.6,33.7 61.5,31.9 59.5,32.3 61,30.9 
				58.9,31.1 60.5,29.7 58.5,29.9 60.1,28.5 58,28.7 59.6,27.4 57.5,27.5 59.2,26.2 57.1,26.3 58.7,25 56.6,25.1 58.2,23.8 56.1,24 
				57.7,22.5 55.6,22.9 56,21 56.8,22.7 54.7,23 56.6,23.8 54.6,24.3 56.5,25.1 54.5,25.6 56.5,26.3 54.5,26.9 56.4,27.6 54.4,28.2 
				56.4,28.9 54.4,29.4 56.3,30.2 54.3,30.7 56.3,31.5 54.2,31.9 56.1,32.8 54.1,33.1 54.8,34.8 55.4,33 53.4,32.9 55.2,31.9 
				53.2,31.6 55.1,30.7 53,30.3 54.9,29.4 52.9,29 54.8,28.2 52.7,27.7 54.6,26.9 52.6,26.5 54.5,25.6 52.4,25.2 54.3,24.3 52.3,24 
				54.1,23 52.1,22.9 52.7,21.1 53.4,22.8 51.4,23.1 53.3,24 51.2,24.4 53.2,25.2 51.2,25.7 53.1,26.4 51.1,27 53.1,27.7 51.1,28.3 
				53,29 51,29.5 53,30.3 50.9,30.8 52.9,31.6 50.9,32.1 52.8,32.9 50.7,33.2 51.5,34.9 52.1,33.1 50,33 51.9,32 49.8,31.7 
				51.7,30.8 49.6,30.4 51.6,29.5 49.5,29.1 51.4,28.3 49.4,27.9 51.3,27 49.2,26.6 51.1,25.7 49.1,25.3 51,24.4 48.9,24.1 
				50.8,23.1 48.7,23 49.3,21.2 50.1,22.9 48,23.2 49.9,24.1 47.9,24.5 49.8,25.3 47.8,25.8 49.8,26.6 47.8,27.1 49.7,27.8 
				47.7,28.4 49.7,29.1 47.7,29.7 49.6,30.4 47.6,30.9 49.5,31.7 47.5,32.2 49.4,33 47.4,33.3 48.1,35 48.7,33.3 46.6,33.1 
				48.5,32.1 46.4,31.8 48.3,30.9 46.3,30.5 48.2,29.6 46.1,29.2 48.1,28.4 46,28 47.9,27.1 45.9,26.7 47.8,25.8 45.7,25.4 
				47.6,24.6 45.6,24.2 47.4,23.2 45.3,23.1 46,21.3 46.5,23.2 44.5,23.1 46.2,24.3 44.1,24.3 45.8,25.5 43.7,25.6 45.5,26.7 
				43.4,26.8 45.2,27.9 43.1,28.1 44.9,29.2 42.8,29.3 44.6,30.5 42.5,30.6 44.2,31.7 42.1,31.8 43.8,33 41.7,32.9 41.9,34.6 
				43.3,33.5 41.7,32.1 43.7,32.4 42.3,30.9 44.3,31.3 42.9,29.8 44.9,30.2 43.5,28.7 45.6,29.1 44.2,27.5 46.2,28 44.8,26.4 
				46.9,26.8 45.4,25.3 47.5,25.7 46,24.2 48.1,24.5 46.5,23.1 48.2,22.2 47.4,23.9 45.8,22.6 46.5,24.6 44.8,23.4 45.5,25.3 
				43.8,24.2 44.6,26.1 42.8,25 43.6,26.9 41.8,25.8 42.6,27.8 40.8,26.7 41.6,28.6 39.9,27.5 40.6,29.4 38.9,28.2 39.5,30.2 
				37.9,28.9 37.1,30.6 38.9,29.9 37.6,28.2 39.6,28.9 38.4,27.2 40.4,28 39.3,26.2 41.2,27 40.1,25.2 42,26.1 40.9,24.3 42.9,25.1 
				41.8,23.3 43.7,24.1 42.6,22.3 44.6,23.1 43.4,21.4 45.4,22.1 44.1,20.5 45.8,19.7 45,21.4 43.4,20.1 44.1,22.1 42.4,20.9 
				43.1,22.9 41.3,21.7 42.1,23.7 40.4,22.5 41.2,24.5 39.4,23.4 40.2,25.3 38.4,24.2 39.2,26.1 37.4,25 38.2,26.9 36.5,25.8 
				37.1,27.7 35.5,26.4 34.7,28.1 36.5,27.4 35.2,25.7 37.1,26.5 36,24.7 37.9,25.5 36.8,23.7 38.8,24.5 37.7,22.7 39.6,23.6 
				38.5,21.8 40.4,22.6 39.4,20.8 41.3,21.7 40.2,19.9 42.1,20.7 41,18.9 43,19.6 41.7,18 43.4,17.2 42.6,19 41,17.6 41.7,19.6 
				39.9,18.4 40.7,20.4 38.9,19.2 39.7,21.2 37.9,20.1 38.7,22 37,20.9 37.8,22.8 36,21.7 36.8,23.7 35,22.5 35.8,24.5 34,23.3 
				34.7,25.3 33.1,23.9 32.3,25.7 34,24.9 32.7,23.3 34.7,24 33.6,22.2 35.5,23 34.4,21.2 36.3,22.1 35.2,20.3 37.2,21.1 36.1,19.3 
				38,20.2 36.9,18.4 38.9,19.2 37.8,17.4 39.7,18.2 38.6,16.4 40.5,17.1 39.2,15.5 41,14.8 39.9,16.5 38.7,14.8 38.8,16.9 
				37.5,15.3 37.7,17.4 36.3,15.9 36.6,17.9 35.1,16.4 35.4,18.5 34,17 34.3,19.1 32.8,17.6 33.1,19.6 31.7,18.1 31.9,20.2 
				30.5,18.6 30.7,20.7 29.5,19.1 28.2,20.3 29.8,20.8 30.2,18.7 31,20.7 31.5,18.6 32.2,20.6 32.8,18.6 33.4,20.6 34,18.6 
				34.7,20.5 35.3,18.5 35.9,20.5 36.5,18.5 37.2,20.5 37.7,18.4 38.5,20.4 39,18.4 39.8,20.3 40.1,18.3 41.8,19.4 39.9,19.5 
				40.3,17.5 38.9,19 39.1,16.9 37.7,18.5 38,16.4 36.6,17.9 36.8,15.9 35.4,17.5 35.6,15.4 34.3,17 34.5,14.9 33.1,16.4 33.3,14.4 
				31.9,15.9 32.2,13.8 30.7,15.4 31.1,13.3 29.3,13.4 30.6,14.7 31.6,12.9 31.8,15 32.9,13.2 33,15.3 34.1,13.5 34.2,15.6 
				35.3,13.9 35.4,16 36.6,14.2 36.6,16.3 37.8,14.6 37.8,16.7 39,15 39.1,17 40.2,15.3 40.3,17.4 41.3,15.5 42.7,16.8 40.8,16.9 
				41.2,14.9 39.8,16.4 40.1,14.3 38.7,15.9 38.9,13.8 37.5,15.4 37.7,13.3 36.4,14.9 36.6,12.8 35.2,14.4 35.4,12.3 34,13.9 
				34.2,11.8 32.8,13.3 33.1,11.3 31.7,12.8 32.1,10.7 30.2,10.8 31.6,12.1 32.6,10.3 32.7,12.4 33.8,10.6 33.9,12.7 35.1,10.9 
				35.1,13 36.3,11.3 36.3,13.4 37.5,11.7 37.5,13.8 38.7,12 38.8,14.1 39.9,12.4 40,14.5 41.1,12.7 41.3,14.8 42.3,12.9 43.7,14.2 
				41.8,14.3 42.2,12.3 40.7,13.8 41,11.7 39.6,13.3 39.8,11.2 38.4,12.8 38.7,10.7 37.3,12.3 37.5,10.2 36.1,11.8 36.3,9.7 
				34.9,11.3 35.2,9.2 33.8,10.7 34.1,8.7 32.6,10.2 33,8.1 31.1,8.2 32.8,9.3 33.1,7.3 33.9,9.2 34.4,7.1 35.2,9.1 35.6,7 36.4,9 
				36.8,6.9 37.6,8.9 38.1,6.9 38.8,8.8 39.3,6.8 40.1,8.7 40.5,6.7 41.3,8.6 41.8,6.6 42.6,8.5 42.9,6.4 44.5,6.8 42.5,7.2 
				43.8,5.7 42.1,6.7 43,4.8 41.4,6.2 42,4.2 40.6,5.7 41,3.7 39.8,5.4 40,3.3 38.9,5.1 39,3 37.9,4.8 38,2.7 37,4.5 37,2.5 36,4.3 
				36,2.2 			"/>
		</g>
		<g>
			<path class="st3" d="M35.4,3c0.7-0.4,4.2,10.9,5,10.9c0.8,0,0.4-11.8,1.3-11.9c0.8,0,1.2,11.8,2.1,11.8c0.8,0,0.5-11.8,1.3-11.9
				c0.8,0,1.2,11.8,2.1,11.8c0.8,0,0.5-11.8,1.3-11.9c0.8,0,1.2,11.8,2.1,11.8c0.8,0,2.9-11.8,3.7-11.4C55,2.4,48.4,12.3,49,12.9
				c0.6,0.6,9.1-7.6,9.7-7c0.6,0.6-7.8,8.9-7.2,9.5c0.6,0.6,9.1-7.6,9.7-7c0.6,0.6-7.8,8.9-7.2,9.5c0.6,0.6,9.1-7.6,9.7-7
				c0.6,0.6-7.8,8.9-7.2,9.5c0.6,0.6,10.9-5.4,11.1-4.6c0.2,0.7-11.5,0.3-11.7,1c-0.2,0.6,10.9,4.7,10.7,5.3
				c-0.2,0.6-11.4-3.4-11.6-2.7C54.5,20,65.6,24,65.4,24.6c-0.2,0.6-11.4-3.4-11.6-2.7c-0.2,0.6,10.9,4.7,10.6,5.3
				c-0.2,0.6-11.4-3.4-11.6-2.7s8.8,7.9,8.2,8.3c-0.7,0.4-4.2-10.9-5-10.9c-0.8,0-0.4,11.8-1.3,11.9c-0.8,0-1.2-11.8-2.1-11.8
				c-0.8,0-0.5,11.8-1.3,11.9c-0.8,0-1.2-11.8-2.1-11.8c-0.8,0-0.5,11.8-1.3,11.9c-0.8,0-1.2-11.8-2.1-11.8
				c-0.8,0-2.9,11.8-3.7,11.4c-0.8-0.3,5.9-10.2,5.3-10.8c-0.6-0.6-9.1,7.6-9.7,7c-0.6-0.6,7.8-8.9,7.2-9.5c-0.6-0.6-9.1,7.6-9.7,7
				c-0.6-0.6,7.8-8.9,7.2-9.5c-0.6-0.6-9.1,7.6-9.7,7c-0.6-0.6,7.8-8.9,7.2-9.5c-0.6-0.6-10.9,5.4-11.1,4.6
				c-0.2-0.7,11.5-0.3,11.7-1c0.2-0.6-10.9-4.7-10.7-5.3c0.2-0.6,11.4,3.4,11.6,2.7c0.2-0.6-10.9-4.7-10.6-5.3
				c0.2-0.6,11.4,3.4,11.6,2.7c0.2-0.6-10.9-4.7-10.6-5.3c0.2-0.6,11.8-0.8,11.5-1.4C42.4,3.9,34.8,3.4,35.4,3z"/>
		</g>
	</g>
</g>
<g id="Layer_4">
	<g>
		<g>
			<path class="st4" d="M16,17.8c-0.4-0.1-0.7-0.3-1.1-0.6c-0.1-0.1-0.2-0.2-0.3-0.3c-0.1,0.1-0.2,0.2-0.3,0.2L14,17.1l-0.3,0
				c-0.3-0.1-0.6-0.2-1-0.5c-0.4-0.3-0.8-0.6-0.8-1c0-0.1,0-0.2,0-0.4c0-0.1,0.1-0.2,0.1-0.3l1.1-7c0-0.1,0.1-0.4,0.2-0.7
				c0.1-0.2,0.2-0.4,0.6-0.6c0.2-0.1,0.4-0.1,0.7-0.1c0.3,0.1,0.6,0.2,0.9,0.4c0.1,0.1,0.2,0.1,0.3,0.2c0.2-0.2,0.4-0.3,0.7-0.3
				c0.2,0,0.3,0,0.4,0l0.1,0l0.1,0c0.3,0.1,0.6,0.2,0.9,0.4c0.4,0.3,0.5,0.6,0.6,0.9c0,0.1,0,0.3-0.1,0.5c0,0.1-0.1,0.1-0.1,0.2
				l-0.4,2.9c0,0.1,0.1,0.2,0.2,0.4c0.2,0.3,0.2,0.6,0.2,0.8c0,0.2-0.2,0.4-0.4,0.6c-0.1,0.1-0.2,0.2-0.3,0.2l-0.4,2.4
				c0,0.1,0,0.2,0,0.4c0,0.6-0.2,1.1-0.6,1.3C16.5,17.8,16.2,17.8,16,17.8z"/>
			<path class="st4" d="M19.4,18.3c-0.1,0-0.2,0-0.3-0.1l-0.1,0l-0.1,0c-0.1-0.1-0.3-0.2-0.5-0.3c-0.2-0.1-0.4-0.2-0.7-0.3
				c-0.5-0.3-0.7-0.8-0.8-1.7c-0.1-0.6,0-1.3,0.1-2.1c0.1-0.8,0.3-1.5,0.6-2.1c0.3-0.8,0.7-1.3,1.2-1.5c0.2-0.1,0.5-0.2,0.9-0.1
				c0.2,0,0.4,0.1,0.7,0.3c0.2,0.1,0.5,0.2,0.8,0.3l0.1,0.1l0.1,0.1c0.4,0.4,0.6,0.9,0.7,1.6c0.1,0.6,0,1.3-0.1,2
				c-0.2,1-0.4,1.9-0.8,2.7C21,17.5,20.5,18.5,19.4,18.3z"/>
			<path class="st4" d="M24.3,19.1c-0.2,0-0.5-0.1-0.8-0.3c0,0-0.1-0.1-0.2-0.1c-0.2,0.1-0.4,0.1-0.7,0.1c-0.4-0.1-0.7-0.3-1.1-0.6
				c-0.4-0.3-0.6-0.6-0.6-0.9c0-0.3,0-1.3,0.6-5.3c0-0.2,0-0.3,0-0.5c0.1-0.4,0.2-0.7,0.6-0.8c0.2-0.1,0.5-0.1,0.8-0.1
				c0.3,0,0.6,0.2,0.9,0.3c0.1,0.1,0.2,0.1,0.3,0.2c0.1,0,0.1-0.1,0.2-0.1c0.2-0.1,0.4-0.1,0.6-0.1c0.3,0,0.5,0.2,0.9,0.4
				c0.3,0.2,0.7,0.4,0.8,0.7c0,0.2,0.1,0.3,0,0.5c0,0.2-0.1,0.3-0.2,0.5c0,0,0,0,0,0l-0.8,5c0,0,0,0,0,0.1c0,0.2,0,0.3,0,0.4
				c-0.1,0.4-0.4,0.6-0.8,0.7l-0.2,0L24.3,19.1z"/>
			<path class="st4" d="M28.5,20c-0.2,0-0.5-0.1-0.8-0.3c-0.2-0.1-0.3-0.1-0.3-0.2c-0.1,0-0.2-0.1-0.3-0.2c-0.1,0-0.2,0-0.4,0
				l-0.1,0l-0.2-0.1c-1.3-0.6-1.8-1.8-1.5-3.6c0.1-0.9,0.4-1.8,0.9-2.6c0.5-0.9,1-1.5,1.5-1.7c0.2-0.1,0.4-0.1,0.6-0.1l0.1-0.8
				c0,0,0-0.1,0-0.2c0-0.2,0-0.4,0-0.5c0.1-0.6,0.7-0.7,1.1-0.7c0.3,0,0.6,0.2,0.9,0.4c0.2,0.1,0.3,0.2,0.4,0.3
				c0.2,0.1,0.5,0.4,0.5,0.9c0,0.1-0.1,0.3-0.2,0.6c-0.1,0.2-0.1,0.2-0.1,0.3l-1.1,7.1c0,0.1,0,0.2,0,0.3c0.1,0.3,0.1,0.5-0.1,0.7
				C29.3,20,28.9,20.1,28.5,20z"/>
			<path class="st4" d="M30.4,20.2c-0.3,0-0.7-0.2-0.9-0.7c0-0.1-0.1-0.3-0.3-0.5c-0.2-0.5-0.3-0.7-0.3-0.8
				c-0.1-0.3-0.1-0.6-0.1-0.9c0-0.1,0-0.2,0.1-0.3c0.2-0.7,0.6-1.3,1.2-1.8c-0.1-0.1-0.2-0.3-0.4-0.6c-0.2-0.4-0.3-0.6-0.3-0.8
				c0-0.4,0.2-0.7,0.4-0.9c0.1-0.1,0.3-0.1,0.5-0.2l0.5-0.3c0.6-0.3,1.1-0.4,1.6-0.4l0.1,0c0.6,0.1,0.9,0.6,1,0.7
				c0.1,0.2,0.2,0.4,0.3,0.6c0.1,0.2,0.2,0.3,0.3,0.5c0.2,0.4,0.3,0.7,0.2,1l-0.6,4.1c0,0.2,0,0.4,0,0.5c0,0.2-0.1,0.4-0.3,0.5
				c-0.3,0.3-0.7,0.3-0.9,0.3l-0.1,0l-0.1,0c-0.2-0.1-0.5-0.2-0.8-0.4C31.1,20.3,30.7,20.3,30.4,20.2z"/>
			<path class="st4" d="M37.5,21.5c-0.3,0-0.6-0.2-1-0.4c-0.5-0.3-0.8-0.5-0.9-0.8c-0.1-0.3-0.1-0.6,0.1-0.9
				c0.1-0.2,0.1-0.3,0.1-0.3l0.7-4.5l-0.2,0l-0.2-0.1c-0.3-0.2-0.5-0.5-0.7-1.1c-0.2-0.6-0.2-0.9-0.1-1.2c0.1-0.4,0.4-0.6,0.9-0.7
				c0.2,0,0.3,0,0.5,0c0,0,0.1,0,0.1,0l2.5-0.5c0,0,0.1,0,0.1,0c0.3-0.1,0.6-0.1,0.7-0.1l0.1,0l0.2,0.1c0.4,0.2,0.6,0.4,0.7,0.8
				c0,0.1,0,0.3,0,0.6c0,0.3,0,0.6,0,0.8c0,0.2-0.1,0.4-0.1,0.5c-0.2,0.3-0.6,0.5-1.1,0.4c0,0,0,0,0,0c-0.1,0-0.3-0.1-0.3-0.1
				l-0.8,5.4c0,0.2,0,0.4,0,0.6c0,0.2,0,0.3-0.1,0.6c-0.1,0.4-0.2,0.6-0.4,0.7l0,0l-0.3,0.1L37.5,21.5z"/>
			<path class="st4" d="M39.5,21.8c-0.3-0.1-0.7-0.2-0.9-0.7c0-0.1-0.1-0.3-0.3-0.5c-0.2-0.5-0.3-0.7-0.3-0.7
				c-0.1-0.3-0.1-0.6-0.1-0.9c0-0.1,0-0.2,0.1-0.3c0.2-0.7,0.6-1.3,1.2-1.8c-0.1-0.1-0.2-0.3-0.4-0.6c-0.2-0.4-0.3-0.6-0.3-0.8
				c0-0.5,0.2-0.7,0.4-0.9c0.1-0.1,0.2-0.1,0.5-0.2l0.5-0.3c0.6-0.3,1.1-0.4,1.6-0.4l0.1,0c0.4,0.1,0.7,0.3,1,0.7
				c0.1,0.2,0.2,0.4,0.3,0.6c0.1,0.2,0.2,0.4,0.3,0.5c0.2,0.4,0.3,0.7,0.2,1l-0.6,4.1c0,0.2,0,0.4,0,0.5c0,0.2-0.1,0.4-0.3,0.5
				C42.3,22,42,22.1,41.6,22l-0.1,0l-0.1,0c-0.2-0.1-0.5-0.2-0.8-0.4C40.2,21.9,39.7,21.9,39.5,21.8z"/>
			<path class="st4" d="M43.6,22.7c-0.3,0-0.5-0.2-0.9-0.4c-0.3-0.2-0.7-0.5-0.8-0.8c-0.1-0.2,0-0.4,0.2-0.7c0,0,0-0.1,0-0.3
				l1.1-7.3c0,0,0,0,0-0.1c-0.1-0.2-0.1-0.4,0-0.6c0.2-0.8,1.1-0.7,1.2-0.7c0.3,0.1,0.7,0.2,1,0.5c0.4,0.3,0.6,0.6,0.7,0.9
				c0,0.2,0,0.4-0.1,0.6c-0.1,0.1-0.1,0.2-0.1,0.3l-0.1,0.3c0,0,0.1,0,0.1,0l0.1,0l0.1,0c0.4,0.1,0.7,0.4,0.9,0.8
				c0.2,0.3,0.4,0.7,0.4,1.1c0.1,0.4,0.1,0.9,0,1.5c-0.1,0.7-0.3,1.5-0.7,2.3c-0.3,0.7-0.6,1.3-0.9,1.7l-0.1,0.1
				c-0.1,0.2-0.2,0.3-0.3,0.4c-0.3,0.2-0.6,0.3-1.1,0.3c0,0,0,0,0,0c-0.1,0-0.2-0.1-0.4-0.1c-0.1,0.1-0.3,0.1-0.4,0.1l-0.1,0
				L43.6,22.7z"/>
			<path class="st4" d="M47.5,23.4c-0.3,0-0.5-0.2-0.9-0.4c-0.3-0.2-0.7-0.5-0.8-0.8c-0.1-0.2,0-0.4,0.2-0.7c0,0,0-0.1,0-0.3
				l1.1-7.3c0,0,0,0,0-0.1c-0.1-0.2-0.1-0.4,0-0.6c0.2-0.8,1.1-0.7,1.2-0.7c0.3,0.1,0.7,0.2,1,0.5c0.4,0.3,0.6,0.6,0.7,0.9
				c0,0.2,0,0.4-0.1,0.6c-0.1,0.1-0.1,0.2-0.1,0.3l-0.1,0.3c0,0,0.1,0,0.1,0l0.1,0l0.1,0c0.4,0.1,0.7,0.4,0.9,0.8
				c0.2,0.3,0.4,0.7,0.4,1.1c0.1,0.4,0.1,0.9,0,1.5c-0.1,0.7-0.3,1.5-0.7,2.3c-0.3,0.7-0.6,1.3-0.9,1.7l-0.1,0.1
				c-0.1,0.2-0.2,0.3-0.3,0.4c-0.3,0.2-0.6,0.3-1.1,0.3c0,0,0,0,0,0c-0.1,0-0.2-0.1-0.4-0.1c-0.1,0.1-0.3,0.1-0.4,0.1l-0.1,0
				L47.5,23.4z"/>
			<path class="st4" d="M51.5,24c-0.3-0.1-0.7-0.2-0.9-0.7c0-0.1-0.1-0.3-0.3-0.5C50.1,22.3,50,22,50,22c-0.1-0.3-0.1-0.6-0.1-0.9
				c0-0.1,0-0.2,0.1-0.2c0.2-0.7,0.6-1.3,1.3-1.8c-0.1-0.1-0.2-0.3-0.4-0.6c-0.2-0.4-0.3-0.6-0.3-0.8c0-0.4,0.2-0.7,0.4-0.9
				c0.1-0.1,0.2-0.1,0.5-0.2l0.5-0.3c0.6-0.3,1.1-0.4,1.6-0.4l0.1,0c0.6,0.1,0.9,0.6,1,0.7c0.1,0.2,0.2,0.4,0.3,0.6
				c0.1,0.2,0.2,0.3,0.3,0.5c0.2,0.4,0.3,0.7,0.2,1l-0.6,4.1c0,0.2,0,0.4,0,0.5c0,0.2-0.1,0.4-0.3,0.5c-0.2,0.2-0.6,0.3-0.9,0.2
				l-0.1,0l-0.1,0c-0.2-0.1-0.5-0.2-0.8-0.4C52.2,24,51.8,24,51.5,24z"/>
			<path class="st4" d="M55.6,24.8c-0.2,0-0.4-0.1-0.8-0.4c-0.4-0.2-0.6-0.4-0.7-0.6c-0.2-0.3-0.2-0.5-0.2-0.8c0-0.1,0-0.2,0.1-0.3
				l1.2-7.8c0-0.1,0-0.2,0-0.3c0.1-0.4,0.4-0.7,0.9-0.8c0.2,0,0.3,0,0.4,0c0.1,0,0.2,0,0.3,0.1c0.3,0.1,0.5,0.2,0.7,0.3
				c0.4,0.3,0.6,0.7,0.6,1c0,0.1,0,0.2-0.1,0.3L58,15.9c0,0.1-0.1,0.3-0.2,0.6l-1,6.7c0,0.2,0,0.3,0,0.4c-0.1,0.4-0.2,1.1-0.9,1.2
				l-0.1,0L55.6,24.8z"/>
		</g>
		<g>
			<path class="st5" d="M17.5,12.6c0,0.1-0.1,0.2-0.2,0.3c-0.1,0.1-0.2,0.2-0.3,0.2c-0.1,0-0.1,0-0.1,0l-0.4,2.8c0,0,0,0.1,0,0.4
				c0,0.5-0.1,0.7-0.2,0.8c0,0-0.1,0-0.1,0c-0.2,0-0.4-0.2-0.6-0.4c-0.3-0.2-0.4-0.5-0.4-0.7c0-0.1,0-0.2,0-0.3c0-0.1,0-0.1,0.1-0.2
				c0.1-0.1,0.1-0.1,0.1-0.2l0.3-2.2c-0.1,0-0.3,0-0.6,0.1c-0.3,0-0.5,0.1-0.6,0.1L14,15.6c0,0.1,0,0.1,0,0.2c0,0.1,0,0.1,0,0.2
				c0,0.1-0.1,0.2-0.1,0.3c0,0.1-0.1,0.1-0.1,0.1c-0.1,0-0.3-0.1-0.6-0.3c-0.3-0.2-0.5-0.4-0.5-0.5c0-0.1,0-0.2,0-0.3
				c0-0.1,0.1-0.2,0.1-0.3l1.1-7c0-0.1,0.1-0.3,0.2-0.6c0-0.1,0.1-0.2,0.3-0.3c0,0,0,0,0.1,0c0.2,0,0.4,0.1,0.6,0.2
				c0.2,0.2,0.4,0.3,0.3,0.5c0,0.1,0,0.2-0.1,0.4c-0.1,0.2-0.1,0.3-0.1,0.4l-0.4,2.7c0.4-0.1,0.7-0.1,1.2-0.2c0.3-2,0.5-3.1,0.5-3.1
				c0,0,0-0.1,0-0.2c0-0.1,0-0.2,0-0.2c0-0.1,0.1-0.2,0.3-0.2c0.1,0,0.2,0,0.3,0c0.1,0,0.3,0.1,0.5,0.2c0.2,0.2,0.3,0.3,0.3,0.4
				c0,0.1,0,0.1-0.1,0.2c-0.1,0.1-0.1,0.2-0.1,0.3l-0.5,3c0,0,0.1,0.2,0.3,0.5C17.4,12.4,17.5,12.6,17.5,12.6z"/>
			<path class="st5" d="M20.9,11.1c0.2,0.2,0.4,0.7,0.5,1.3c0.1,0.6,0,1.2-0.1,1.9c-0.2,1-0.4,1.8-0.7,2.5c-0.4,0.7-0.7,1-1.1,0.9
				c-0.1-0.1-0.3-0.2-0.6-0.3c-0.2-0.1-0.4-0.2-0.5-0.3c-0.3-0.2-0.4-0.6-0.5-1.2c-0.1-0.6,0-1.2,0.1-2c0.1-0.8,0.3-1.4,0.6-2
				c0.3-0.6,0.6-1.1,1-1.3c0.1,0,0.1,0,0.2,0c0.1,0,0.3,0.1,0.6,0.2C20.3,10.9,20.6,11,20.9,11.1z M19.9,12c-0.1,0-0.3,0.2-0.5,0.7
				c-0.2,0.5-0.3,0.9-0.4,1.3c-0.1,0.5-0.1,1.1-0.1,1.6c0,0.6,0.1,0.9,0.2,1c0.2,0.1,0.3-0.2,0.5-0.7c0.2-0.5,0.4-1.1,0.5-1.8
				c0.1-0.4,0.1-0.7,0.1-1.1C20.2,12.3,20.1,12,19.9,12z"/>
			<path class="st5" d="M25.8,12c0,0.1,0,0.2,0,0.2c0,0.1-0.1,0.2-0.1,0.2c-0.1,0.1-0.1,0.2-0.1,0.2l-0.8,5.1c0,0,0,0.1,0,0.2
				c0,0.1,0,0.2,0,0.3c0,0.1-0.1,0.2-0.3,0.2c-0.1,0-0.3-0.1-0.5-0.2c-0.3-0.2-0.5-0.3-0.5-0.4c0-0.1,0-0.2,0.1-0.4
				c0.1-0.2,0.1-0.3,0.1-0.4c0-0.1,0-0.2,0-0.3c-0.1,0.4-0.3,0.7-0.5,0.9c-0.2,0.3-0.4,0.4-0.6,0.4c-0.2,0-0.4-0.2-0.6-0.4
				c-0.2-0.2-0.4-0.4-0.4-0.5c-0.1-0.5,0.1-2.2,0.6-5.2c0-0.1,0-0.3,0-0.4c0-0.2,0.1-0.4,0.2-0.4c0,0,0.1,0,0.2,0
				c0.2,0,0.4,0.1,0.6,0.2c0.2,0.1,0.4,0.2,0.4,0.3c0,0,0,0.1,0,0.1c0,0.1-0.1,0.2-0.2,0.4c-0.1,0.2-0.2,0.3-0.2,0.4
				c-0.5,2.9-0.7,4.3-0.6,4.4c0.1,0,0.3-0.3,0.7-0.9c0.4-0.7,0.6-1.2,0.7-1.6l0.3-2.1c0-0.1-0.1-0.2,0-0.4c0-0.3,0.2-0.5,0.3-0.5
				c0,0,0.1,0,0.1,0c0.1,0,0.3,0.1,0.6,0.2C25.6,11.9,25.7,12,25.8,12z"/>
			<path class="st5" d="M30.2,10.6c0,0.1,0,0.2-0.1,0.4c-0.1,0.2-0.1,0.3-0.1,0.4l-1.1,7.2c0,0.2,0,0.4,0,0.5c0,0.2,0,0.3,0,0.4
				c0,0.1-0.1,0.1-0.2,0.1c-0.1,0-0.3-0.1-0.5-0.2c-0.3-0.1-0.4-0.2-0.4-0.2c-0.1,0-0.1-0.1-0.2-0.3c0,0,0-0.1,0-0.1
				c0-0.3,0.1-0.7,0.3-1.3c-0.2,0.3-0.3,0.7-0.5,1c-0.2,0.4-0.4,0.6-0.5,0.5c-0.9-0.5-1.3-1.4-1.1-2.9c0.1-0.8,0.4-1.7,0.9-2.5
				c0.4-0.8,0.9-1.3,1.3-1.5c0.1,0,0.1,0,0.2,0c0.1,0,0.3,0.3,0.5,0.8l0.3-2.1c0-0.1,0-0.2,0-0.3c0-0.2,0-0.3,0-0.3
				c0-0.2,0.1-0.2,0.2-0.2c0.1,0,0.3,0.1,0.5,0.2c0.1,0.1,0.3,0.2,0.4,0.3C30.1,10.2,30.2,10.4,30.2,10.6z M28.4,13.2
				c-0.3,0.1-0.6,0.5-0.9,1.1c-0.3,0.6-0.5,1.1-0.6,1.7c-0.1,0.6,0,1,0.3,1.1C27.4,17.1,27.8,15.8,28.4,13.2z"/>
			<path class="st5" d="M33,19.5c0,0.1-0.1,0.2-0.1,0.2c-0.1,0.1-0.1,0.1-0.2,0.1c-0.6-0.2-0.9-0.5-0.9-0.7c0,0,0-0.1,0-0.1
				c0,0,0-0.1,0.1-0.1c0,0,0-0.1,0.1-0.1c0,0,0-0.1,0-0.1c0-0.1,0-0.2,0.1-0.4c-0.1,0.1-0.2,0.2-0.4,0.5c-0.2,0.3-0.3,0.5-0.4,0.6
				c-0.2,0.2-0.4,0.3-0.6,0.2c-0.1,0-0.2-0.1-0.3-0.3c0-0.1-0.1-0.2-0.2-0.5c-0.2-0.4-0.3-0.7-0.3-0.7c-0.1-0.2-0.1-0.4-0.1-0.6
				c0-0.1,0-0.1,0-0.2c0.2-0.6,0.6-1.2,1.2-1.7c0.4-0.4,1-0.7,1.7-1.1c0-0.2,0-0.4,0-0.5c0-0.1-0.2,0-0.6,0.2
				c-0.3,0.2-0.6,0.3-0.7,0.4c0,0.1-0.1,0.1-0.2,0.2c-0.1,0.1-0.2,0.1-0.2,0c-0.1,0-0.1-0.2-0.3-0.5c-0.1-0.3-0.2-0.5-0.2-0.5
				c0-0.2,0.1-0.4,0.2-0.4c0,0,0.1,0,0.3-0.1c0.2-0.1,0.4-0.2,0.6-0.3c0.4-0.2,0.8-0.3,1.1-0.3c0.1,0,0.2,0.1,0.3,0.3
				c0.1,0.2,0.2,0.4,0.3,0.6s0.2,0.4,0.3,0.6c0.1,0.2,0.2,0.4,0.1,0.6l-0.6,4.2C33,19.3,33,19.4,33,19.5z M32.3,16.1
				c-0.3,0.1-0.5,0.3-0.7,0.5c-0.2,0.2-0.3,0.4-0.5,0.6c-0.1,0.1-0.3,0.3-0.4,0.5c-0.1,0.2-0.2,0.4-0.2,0.5c0,0.1,0,0.1,0,0.1
				c0.1,0,0.4-0.3,0.9-0.9C31.8,16.9,32.1,16.4,32.3,16.1z"/>
			<path class="st5" d="M40,13.6c0,0-0.1,0-0.2-0.1c-0.1-0.1-0.1-0.1-0.2-0.1l-0.8,0.2L38,19.3c0,0.2,0,0.4,0,0.7
				c0,0.1,0,0.2-0.1,0.4c-0.1,0.2-0.1,0.4-0.2,0.4c0,0,0,0-0.1,0c-0.2,0-0.4-0.1-0.7-0.3c-0.3-0.2-0.5-0.3-0.5-0.4
				c0-0.1,0-0.3,0.1-0.5c0.1-0.2,0.1-0.3,0.2-0.4l0.8-5.4L37,13.9c0,0-0.1,0-0.1,0.1c-0.1,0-0.1,0.1-0.2,0c-0.1-0.1-0.2-0.3-0.4-0.7
				c-0.1-0.4-0.2-0.7-0.1-0.8c0.1-0.2,0.2-0.3,0.4-0.3c0.1,0,0.1,0,0.2,0c0.1,0,0.1,0,0.2,0l2.8-0.5c0,0,0.1,0,0.2-0.1
				c0.1,0,0.2,0,0.2,0c0.1,0.1,0.2,0.2,0.2,0.3c0,0.1,0,0.3,0,0.5c0,0.3,0,0.5,0,0.8c0,0.2-0.1,0.3-0.1,0.4S40.2,13.6,40,13.6z"/>
			<path class="st5" d="M42,21.1c0,0.1-0.1,0.2-0.1,0.2c-0.1,0.1-0.1,0.1-0.2,0.1c-0.6-0.2-0.9-0.5-0.9-0.7c0,0,0-0.1,0-0.1
				c0,0,0-0.1,0.1-0.1c0,0,0-0.1,0.1-0.1c0,0,0-0.1,0-0.1c0-0.1,0-0.2,0.1-0.4c-0.1,0.1-0.2,0.2-0.4,0.5c-0.2,0.3-0.3,0.5-0.4,0.6
				c-0.2,0.2-0.4,0.3-0.6,0.2c-0.1,0-0.2-0.1-0.3-0.3c0-0.1-0.1-0.2-0.2-0.5c-0.2-0.4-0.3-0.7-0.3-0.7c-0.1-0.2-0.1-0.4-0.1-0.6
				c0-0.1,0-0.1,0-0.2c0.2-0.6,0.6-1.2,1.2-1.7c0.4-0.4,1-0.7,1.7-1.1c0-0.2,0-0.4,0-0.5c0-0.1-0.2,0-0.6,0.2
				c-0.3,0.2-0.6,0.3-0.7,0.4c0,0.1-0.1,0.1-0.2,0.2c-0.1,0.1-0.2,0.1-0.2,0c-0.1,0-0.1-0.2-0.3-0.5c-0.1-0.3-0.2-0.5-0.2-0.5
				c0-0.2,0.1-0.4,0.2-0.4c0,0,0.1,0,0.3-0.1c0.2-0.1,0.4-0.2,0.6-0.3c0.4-0.2,0.8-0.3,1.1-0.3c0.1,0,0.2,0.1,0.3,0.3
				c0.1,0.2,0.2,0.4,0.3,0.6c0.1,0.2,0.2,0.4,0.3,0.6c0.1,0.2,0.2,0.4,0.1,0.6L42,20.7C42,20.9,42,21,42,21.1z M41.3,17.7
				c-0.3,0.1-0.5,0.3-0.7,0.5c-0.2,0.2-0.3,0.4-0.5,0.6c-0.1,0.1-0.3,0.3-0.4,0.5c-0.1,0.2-0.2,0.4-0.2,0.5c0,0.1,0,0.1,0,0.1
				c0.1,0,0.4-0.3,0.9-0.9C40.8,18.5,41.2,18,41.3,17.7z"/>
			<path class="st5" d="M46.8,16.5c0.1,0.4,0,0.8,0,1.3c-0.1,0.7-0.3,1.4-0.6,2.2c-0.3,0.7-0.6,1.3-0.9,1.7c0,0.1-0.1,0.2-0.1,0.2
				c0,0.1-0.1,0.1-0.1,0.2c-0.1,0.1-0.2,0.1-0.4,0.1c-0.1,0-0.3-0.1-0.4-0.3c0,0-0.1-0.2-0.3-0.4c0,0.1,0,0.1,0,0.3
				c0,0.1,0,0.1,0,0.2c-0.1,0.2-0.1,0.2-0.2,0.2c-0.1,0-0.3-0.1-0.6-0.3s-0.4-0.3-0.5-0.4c0-0.1,0-0.2,0.1-0.4
				c0-0.1,0.1-0.2,0.1-0.5l1.1-7.4c0,0,0-0.1,0-0.2c0-0.1,0-0.2,0-0.3c0.1-0.2,0.2-0.3,0.4-0.3c0.2,0,0.4,0.1,0.6,0.3
				c0.2,0.2,0.4,0.4,0.4,0.5c0,0.1,0,0.2-0.1,0.3c-0.1,0.2-0.1,0.3-0.2,0.4l-0.3,1.8c0.5-0.5,0.9-0.7,1.1-0.7
				c0.2,0.1,0.3,0.2,0.5,0.5C46.6,15.8,46.7,16.1,46.8,16.5z M45.9,16.4c-0.2,0.1-0.5,0.3-0.7,0.6c-0.3,0.3-0.5,0.5-0.6,0.8l-0.5,3
				c0,0.1,0.1,0.1,0.1,0.2c0.2,0.1,0.4-0.4,0.8-1.5c0.4-1.1,0.7-1.9,0.8-2.6C45.9,16.6,45.9,16.5,45.9,16.4z"/>
			<path class="st5" d="M50.7,17.2c0.1,0.4,0,0.8,0,1.3c-0.1,0.7-0.3,1.4-0.6,2.2c-0.3,0.7-0.6,1.3-0.9,1.6c0,0.1-0.1,0.2-0.1,0.2
				c0,0.1-0.1,0.1-0.1,0.2c-0.1,0.1-0.2,0.1-0.4,0.1c-0.1,0-0.3-0.1-0.4-0.3c0,0-0.1-0.2-0.3-0.4c0,0.1,0,0.1,0,0.3
				c0,0.1,0,0.1,0,0.2c-0.1,0.2-0.1,0.2-0.2,0.2c-0.1,0-0.3-0.1-0.6-0.3c-0.3-0.2-0.4-0.3-0.5-0.4c0-0.1,0-0.2,0.1-0.4
				c0-0.1,0.1-0.2,0.1-0.5l1.1-7.4c0,0,0-0.1,0-0.2c0-0.1,0-0.2,0-0.3c0.1-0.2,0.2-0.3,0.4-0.3c0.2,0,0.4,0.1,0.6,0.3
				c0.2,0.2,0.4,0.4,0.4,0.5c0,0.1,0,0.2-0.1,0.3c-0.1,0.2-0.1,0.3-0.2,0.4l-0.3,1.8c0.5-0.5,0.9-0.7,1.1-0.7
				c0.2,0.1,0.3,0.2,0.5,0.5C50.5,16.5,50.6,16.8,50.7,17.2z M49.8,17.1c-0.2,0.1-0.5,0.3-0.7,0.6c-0.3,0.3-0.5,0.6-0.6,0.8l-0.5,3
				c0,0.1,0.1,0.1,0.1,0.2c0.2,0.1,0.4-0.4,0.8-1.5c0.4-1.1,0.7-1.9,0.8-2.6C49.8,17.3,49.8,17.2,49.8,17.1z"/>
			<path class="st5" d="M54,23.2c0,0.1-0.1,0.2-0.1,0.2c-0.1,0.1-0.1,0.1-0.2,0.1c-0.6-0.2-0.9-0.5-0.9-0.7c0,0,0-0.1,0-0.1
				c0,0,0-0.1,0.1-0.1c0,0,0-0.1,0.1-0.1c0,0,0-0.1,0-0.1c0-0.1,0-0.2,0.1-0.4c-0.1,0.1-0.2,0.2-0.4,0.5c-0.2,0.3-0.3,0.5-0.4,0.6
				c-0.2,0.2-0.4,0.3-0.6,0.2c-0.1,0-0.2-0.1-0.3-0.3c0-0.1-0.1-0.2-0.2-0.5c-0.2-0.4-0.3-0.7-0.3-0.7c-0.1-0.2-0.1-0.4-0.1-0.6
				c0-0.1,0-0.1,0-0.2c0.2-0.6,0.6-1.2,1.2-1.7c0.4-0.4,1-0.7,1.7-1.1c0-0.2,0-0.4,0-0.5c0-0.1-0.2,0-0.6,0.2
				c-0.3,0.2-0.6,0.3-0.7,0.4c0,0.1-0.1,0.1-0.2,0.2c-0.1,0.1-0.2,0.1-0.2,0c-0.1,0-0.1-0.2-0.3-0.5c-0.1-0.3-0.2-0.5-0.2-0.5
				c0-0.2,0.1-0.4,0.2-0.4c0,0,0.1,0,0.3-0.1c0.2-0.1,0.4-0.2,0.6-0.3c0.4-0.2,0.8-0.3,1.1-0.3c0.1,0,0.2,0.1,0.3,0.3
				c0.1,0.2,0.2,0.4,0.3,0.6c0.1,0.2,0.2,0.4,0.3,0.6c0.1,0.2,0.2,0.4,0.1,0.6L54,22.8C54,23,54,23.2,54,23.2z M53.3,19.8
				c-0.3,0.1-0.5,0.3-0.7,0.5c-0.2,0.2-0.3,0.4-0.5,0.6c-0.1,0.1-0.3,0.3-0.4,0.5c-0.1,0.2-0.2,0.4-0.2,0.5c0,0.1,0,0.1,0,0.1
				c0.1,0,0.4-0.3,0.9-0.9C52.9,20.6,53.2,20.2,53.3,19.8z"/>
			<path class="st5" d="M57.4,15.3c0,0.1,0,0.1-0.1,0.2c0,0.1-0.1,0.1-0.1,0.2c-0.1,0.1-0.1,0.4-0.2,0.7L56,23c0,0.1,0,0.2,0,0.2
				c0,0.1,0,0.1,0,0.2c-0.1,0.5-0.2,0.7-0.3,0.7c0,0-0.2-0.1-0.5-0.2c-0.3-0.2-0.4-0.3-0.4-0.4c-0.1-0.2-0.1-0.3-0.1-0.4
				c0,0,0-0.1,0-0.1c0,0,0-0.1,0.1-0.2l1.2-7.7c0,0,0-0.1,0-0.1c0-0.1,0-0.1,0-0.1c0-0.2,0.1-0.3,0.3-0.3c0.1,0,0.2,0,0.3,0.1
				c0.2,0.1,0.3,0.1,0.5,0.2C57.3,15,57.4,15.1,57.4,15.3z"/>
		</g>
	</g>
</g>
</svg>
