<?xml version="1.0" encoding="utf-8"?>
<!-- Generator: Adobe Illustrator 25.2.0, SVG Export Plug-In . SVG Version: 6.00 Build 0)  -->
<svg version="1.1" id="Layer_1" xmlns="http://www.w3.org/2000/svg" xmlns:xlink="http://www.w3.org/1999/xlink" x="0px" y="0px"
	 viewBox="0 0 56 21.4" style="enable-background:new 0 0 56 21.4;" xml:space="preserve">
<style type="text/css">
	.st0{opacity:0.7;fill:#33CC00;}
	.st1{opacity:0.7;fill:#00CCFF;}
	.st2{fill:none;}
	.st3{opacity:0.59;}
	.st4{font-family:'ArialRoundedMTBold';}
	.st5{font-size:18px;}
	.st6{opacity:0.6;fill:#FFFF99;}
	.st7{opacity:0.83;}
	.st8{font-family:'SignPainter-HouseScriptSemibold';}
	.st9{font-size:6px;}
</style>
<path class="st0" d="M1.2,5.2C1.2,5.7,1.4,6,1.7,6s0.5-0.3,0.5-0.9V0.4c0-0.1,0.1-0.2,0.1-0.2h0.6C2.9,0.2,3,0.3,3,0.4v4.8
	c0,1.2-0.5,2.2-1.3,2.2c-0.8,0-1.3-1-1.3-2.2V4.9c0-0.1,0.1-0.2,0.1-0.2h0.6c0.1,0,0.1,0.1,0.1,0.2C1.2,4.9,1.2,5.2,1.2,5.2z"/>
<path class="st0" d="M6.5,2.3c0.1,0.9,0.1,2,0,2.9C6.4,6.4,5.9,7.4,5.1,7.4s-1.3-1-1.4-2.2c-0.1-0.9-0.1-2,0-2.9
	c0.1-1.2,0.6-2.2,1.4-2.2S6.4,1.1,6.5,2.3 M4.5,2.3c-0.1,0.9-0.1,2,0,2.9C4.5,5.7,4.7,6,5.1,6s0.5-0.3,0.6-0.8c0.1-0.9,0.1-2,0-2.9
	c0-0.4-0.2-0.8-0.6-0.8S4.6,1.8,4.5,2.3"/>
<path class="st0" d="M7.8,5.2C7.8,5.7,8,6,8.4,6c0.4,0,0.6-0.3,0.6-0.8V0.4c0-0.1,0.1-0.2,0.1-0.2h0.6c0.1,0,0.1,0.1,0.1,0.2v4.8
	c0,1.2-0.6,2.2-1.4,2.2C7.6,7.4,7,6.4,7,5.2V0.4C7,0.3,7,0.2,7.1,0.2h0.6c0.1,0,0.1,0.1,0.1,0.2V5.2L7.8,5.2z"/>
<path class="st0" d="M11.3,4.5C11.2,4.5,11.2,4.5,11.3,4.5l-0.1,2.7c0,0.1-0.1,0.2-0.1,0.2h-0.6c-0.1,0-0.1-0.1-0.1-0.2V0.5
	c0-0.1,0.1-0.2,0.1-0.2h1.3c0.7,0,1.2,1,1.2,2.1c0,0.8-0.2,1.3-0.6,1.8c-0.1,0.1-0.1,0.2,0,0.3L13,7.1c0.1,0.1,0,0.3-0.1,0.3h-0.6
	c-0.1,0-0.1-0.1-0.2-0.2l-0.6-2.6c0,0-0.1-0.1-0.1-0.1H11.3L11.3,4.5z M11.3,1.6C11.2,1.6,11.2,1.7,11.3,1.6L11.2,3
	c0,0,0,0.1,0.1,0.1h0.5c0.2,0,0.4-0.3,0.4-0.7S12,1.7,11.8,1.7L11.3,1.6L11.3,1.6z"/>
<path class="st0" d="M16.1,7.2c0,0.1-0.1,0.2-0.1,0.2h-0.7c-0.1,0-0.1-0.1-0.1-0.2l-0.8-3.6h-0.1v3.6c0,0.1-0.1,0.2-0.1,0.2h-0.6
	c-0.1,0-0.1-0.1-0.1-0.2V0.4c0-0.1,0.1-0.2,0.1-0.2h0.7c0.1,0,0.1,0.1,0.1,0.2l0.8,3.9h0.1V0.4c0-0.1,0.1-0.2,0.1-0.2H16
	c0.1,0,0.1,0.1,0.1,0.2C16.1,0.4,16.1,7.2,16.1,7.2z"/>
<path class="st0" d="M17.4,7.2c0,0.1-0.1,0.1-0.1,0.1h-0.6c-0.1,0-0.1-0.1-0.1-0.2l1-6.8c0-0.1,0.1-0.1,0.1-0.1h0.8
	c0.1,0,0.1,0,0.1,0.1l1,6.8c0,0.1,0,0.2-0.1,0.2h-0.6c-0.1,0-0.1,0-0.1-0.1l-0.2-1c0-0.1,0-0.1-0.1-0.1h-0.9c-0.1,0-0.1,0-0.1,0.1
	L17.4,7.2z M17.8,4.4C17.8,4.5,17.9,4.5,17.8,4.4l0.6,0.1c0,0,0.1,0,0.1-0.1L18.2,2l0,0l0,0l0,0L17.8,4.4z"/>
<path class="st0" d="M21,5.9L21,5.9L22.5,6c0.1,0,0.1,0.1,0.1,0.2v1c0,0.1-0.1,0.2-0.1,0.2h-2.2c-0.1,0-0.1-0.1-0.1-0.2V0.5
	c0-0.1,0.1-0.2,0.1-0.2h0.6C21,0.3,21,0.4,21,0.5L21,5.9L21,5.9z"/>
<path class="st0" d="M24,1.7C24,1.6,23.9,1.6,24,1.7l-0.6-0.1c-0.1,0-0.1-0.1-0.1-0.2v-1c0-0.1,0.1-0.2,0.1-0.2h2
	c0.1,0,0.1,0.1,0.1,0.2v1c0,0.1-0.1,0.2-0.1,0.2h-0.6c0,0-0.1,0-0.1,0.1V6c0,0,0,0.1,0.1,0.1h0.6c0.1,0,0.1,0.1,0.1,0.2v1
	c0,0.1-0.1,0.2-0.1,0.2h-2.2c-0.1,0-0.1-0.1-0.1-0.2V6.2c0-0.1,0.1-0.2,0.1-0.2h0.6c0,0,0.1,0,0.1-0.1L24,1.7L24,1.7z"/>
<path class="st0" d="M27.3,4.5C26.5,4.3,26,3.6,26,2.4s0.6-2.1,1.3-2.1c0.8,0,1.3,1,1.3,2.1v0.1c0,0.1-0.1,0.2-0.1,0.2h-0.6
	c-0.1,0-0.1-0.1-0.1-0.2V2.4c0-0.4-0.2-0.8-0.5-0.8s-0.5,0.2-0.5,0.7c0,0.3,0.2,0.7,0.5,0.8c0.8,0.2,1.4,0.9,1.4,2.4
	c0,1.3-0.6,2.2-1.4,2.2s-1.4-1-1.4-2.2V4.9c0-0.1,0.1-0.2,0.1-0.2h0.6c0.1,0,0.1,0.1,0.1,0.2v0.3c0,0.4,0.2,0.8,0.6,0.8
	c0.3,0,0.6-0.3,0.6-0.8C27.9,4.8,27.7,4.7,27.3,4.5"/>
<path class="st0" d="M30.6,2.5c0,0.1,0.1,0.1,0.1,0l0.3-2c0-0.1,0.1-0.2,0.1-0.2H32c0.1,0,0.1,0.1,0.1,0.2v6.7
	c0,0.1-0.1,0.2-0.1,0.2h-0.6c-0.1,0-0.1-0.1-0.1-0.2v-4c0,0,0,0-0.1,0L31,4.7c0,0.1-0.1,0.2-0.1,0.2h-0.3c-0.1,0-0.1,0-0.1-0.2
	l-0.3-1.6h-0.1v4c0,0.1-0.1,0.2-0.1,0.2h-0.6c-0.1,0-0.1-0.1-0.1-0.2V0.5c0-0.1,0.1-0.2,0.1-0.2h0.8c0.1,0,0.1,0,0.1,0.2L30.6,2.5z"
	/>
<path class="st1" d="M13.6,17.2c-0.1,0-0.1-0.1-0.1-0.2v-6.7c0-0.1,0.1-0.2,0.1-0.2h1.2c0.7,0,1.2,1,1.3,2.2c0.1,0.9,0.1,1.8,0,2.7
	c-0.1,1.2-0.6,2.2-1.3,2.2H13.6z M14.8,15.7c0.3,0,0.4-0.3,0.4-0.8c0.1-0.9,0.1-1.8,0-2.7c0-0.4-0.2-0.8-0.4-0.8h-0.4
	c0,0-0.1,0-0.1,0.1v4.1c0,0,0,0.1,0.1,0.1h0.4V15.7z"/>
<path class="st1" d="M17.7,12.8C17.7,12.8,17.7,12.8,17.7,12.8l1.3,0.1c0.1,0,0.1,0.1,0.1,0.2v1c0,0.1-0.1,0.2-0.1,0.2h-1.3
	c0,0-0.1,0-0.1,0.1v1.2c0,0,0,0.1,0.1,0.1h1.4c0.1,0,0.1,0.1,0.1,0.2v0.9c0,0.1-0.1,0.2-0.1,0.2h-2.1c-0.1,0-0.1-0.1-0.1-0.2v-6.7
	c0-0.1,0.1-0.2,0.1-0.2h2.1c0.1,0,0.1,0.1,0.1,0.2v1c0,0.1-0.1,0.2-0.1,0.2h-1.4c0,0-0.1,0-0.1,0.1L17.7,12.8L17.7,12.8z"/>
<path class="st1" d="M21.3,14.2C20.6,14,20,13.3,20,12.1s0.6-2.1,1.3-2.1s1.3,1,1.3,2.1v0.1c0,0.1-0.1,0.2-0.1,0.2h-0.6
	c-0.1,0-0.1-0.1-0.1-0.2v-0.1c0-0.4-0.2-0.8-0.5-0.8s-0.5,0.3-0.5,0.7c0,0.3,0.2,0.7,0.5,0.8c0.8,0.2,1.4,0.9,1.4,2.4
	c0,1.3-0.6,2.2-1.4,2.2s-1.4-1-1.4-2.2v-0.4c0-0.1,0.1-0.2,0.1-0.2h0.6c0.1,0,0.1,0.1,0.1,0.2V15c0,0.4,0.2,0.8,0.6,0.8
	c0.3,0,0.6-0.3,0.6-0.8C21.9,14.6,21.7,14.4,21.3,14.2"/>
<path class="st1" d="M23.9,11.3C23.9,11.3,23.8,11.2,23.9,11.3l-0.6-0.1c-0.1,0-0.1-0.1-0.1-0.2v-0.9c0-0.1,0.1-0.2,0.1-0.2h2
	c0.1,0,0.1,0.1,0.1,0.2v1c0,0.1-0.1,0.2-0.1,0.2h-0.6c0,0-0.1,0-0.1,0.1v4.3c0,0,0,0.1,0.1,0.1h0.6c0.1,0,0.1,0.1,0.1,0.2v0.8
	c0,0.1-0.1,0.2-0.1,0.2h-2.2c-0.1,0-0.1-0.1-0.1-0.2v-1c0-0.1,0.1-0.2,0.1-0.2h0.6c0,0,0.1,0,0.1-0.1L23.9,11.3L23.9,11.3z"/>
<path class="st1" d="M27.4,11.2c-0.4,0-0.5,0.3-0.6,0.8c-0.1,0.9-0.1,2,0,2.9c0,0.4,0.2,0.8,0.6,0.8c0.4,0,0.6-0.3,0.6-0.8v-0.4
	c0,0,0-0.1-0.1-0.1h-0.4c-0.1,0-0.1-0.1-0.1-0.2v-1c0-0.1,0.1-0.2,0.1-0.2h1.1c0.1,0,0.1,0.1,0.1,0.2v1.7c0,1.2-0.6,2.2-1.4,2.2
	S26,16,26,14.8c-0.1-0.9-0.1-2,0-2.9c0.1-1.2,0.6-2.2,1.4-2.2s1.4,1,1.4,2.4c0,0.1-0.1,0.2-0.1,0.2h-0.6c-0.1,0-0.1-0.1-0.1-0.2
	C27.9,11.6,27.7,11.2,27.4,11.2"/>
<path class="st1" d="M32.1,16.8c0,0.1-0.1,0.2-0.1,0.2h-0.7c-0.1,0-0.1-0.1-0.1-0.2l-0.8-3.6h-0.1v3.6c0,0.1-0.1,0.2-0.1,0.2h-0.6
	c-0.1,0-0.1-0.1-0.1-0.2v-6.7c0-0.1,0.1-0.2,0.1-0.2h0.7c0.1,0,0.1,0.1,0.1,0.2l0.8,3.9h0.1v-3.9c0-0.1,0.1-0.2,0.1-0.2H32
	c0.1,0,0.1,0.1,0.1,0.2V16.8z"/>
<rect x="11.2" y="3.2" class="st2" width="19.9" height="15.9"/>
<text transform="matrix(1 0 0 1 11.1955 16.3529)" class="st3 st4 st5">&amp;</text>
<polygon class="st6" points="48.8,0 49.4,7.4 56,10.8 48.9,14 47.2,21.4 42.2,16 34.6,17.1 38.7,10.6 35.6,3.9 43.1,5.2 "/>
<rect x="35.8" y="4.9" class="st2" width="16.2" height="12.8"/>
<text transform="matrix(1 0 0 1 36.7027 8.6572)" class="st7"><tspan x="0" y="0" class="st8 st9">HOUDA </tspan><tspan x="-0.4" y="7.2" class="st8 st9">TABBAL</tspan></text>
</svg>
